<mxfile host="65bd71144e">
    <diagram id="at-AqY8HnoSzZfMq8VUL" name="Page-1">
        <mxGraphModel dx="1662" dy="659" grid="1" gridSize="10" guides="1" tooltips="1" connect="1" arrows="1" fold="1" page="1" pageScale="1" pageWidth="850" pageHeight="1100" math="0" shadow="0">
            <root>
                <mxCell id="0"/>
                <mxCell id="1" parent="0"/>
                <mxCell id="126" value="" style="rounded=0;whiteSpace=wrap;html=1;strokeColor=default;gradientColor=none;fillColor=default;dashed=1;dashPattern=12 12;opacity=30;" parent="1" vertex="1">
                    <mxGeometry x="-430" y="50" width="1600" height="1290" as="geometry"/>
                </mxCell>
                <mxCell id="120" style="edgeStyle=orthogonalEdgeStyle;rounded=0;html=1;startArrow=none;startFill=0;endArrow=classic;endFill=1;" parent="1" source="75" edge="1">
                    <mxGeometry relative="1" as="geometry">
                        <mxPoint x="120" y="1340" as="targetPoint"/>
                        <Array as="points">
                            <mxPoint x="120" y="1060"/>
                            <mxPoint x="120" y="1060"/>
                        </Array>
                    </mxGeometry>
                </mxCell>
                <mxCell id="75" value="" style="group;horizontal=1;movable=0;resizable=0;rotatable=0;deletable=0;editable=0;connectable=0;" parent="1" vertex="1" connectable="0">
                    <mxGeometry y="540" width="820" height="480" as="geometry"/>
                </mxCell>
                <mxCell id="73" value="&lt;p style=&quot;line-height: 30%;&quot;&gt;&lt;/p&gt;&lt;div style=&quot;&quot;&gt;&lt;br&gt;&lt;/div&gt;&lt;p&gt;&lt;/p&gt;" style="rounded=0;whiteSpace=wrap;html=1;align=center;movable=0;resizable=0;rotatable=0;deletable=0;editable=0;connectable=0;" parent="75" vertex="1">
                    <mxGeometry width="820" height="479.99999999999994" as="geometry"/>
                </mxCell>
                <mxCell id="76" value="UART Memory" style="rounded=0;whiteSpace=wrap;html=1;" parent="75" vertex="1">
                    <mxGeometry x="610" width="210" height="480" as="geometry"/>
                </mxCell>
                <mxCell id="116" value="DATA_IN" style="text;html=1;align=center;verticalAlign=middle;resizable=0;points=[];autosize=1;strokeColor=default;fillColor=none;movable=0;rotatable=0;deletable=0;editable=0;connectable=0;" parent="75" vertex="1">
                    <mxGeometry x="50" width="70" height="30" as="geometry"/>
                </mxCell>
                <mxCell id="117" value="DATA_OUT" style="text;html=1;align=center;verticalAlign=middle;resizable=1;points=[];autosize=1;strokeColor=default;fillColor=none;movable=1;rotatable=1;deletable=1;editable=1;connectable=1;" parent="75" vertex="1">
                    <mxGeometry x="130" width="90" height="30" as="geometry"/>
                </mxCell>
                <mxCell id="121" value="TX" style="text;html=1;align=center;verticalAlign=middle;resizable=0;points=[];autosize=1;strokeColor=default;fillColor=none;" parent="75" vertex="1">
                    <mxGeometry x="100" y="450" width="40" height="30" as="geometry"/>
                </mxCell>
                <mxCell id="127" value="UART Controller" style="rounded=0;whiteSpace=wrap;html=1;fillStyle=dots;strokeColor=default;fillColor=none;gradientColor=none;" parent="75" vertex="1">
                    <mxGeometry width="370" height="240" as="geometry"/>
                </mxCell>
                <mxCell id="129" value="UART Transmitter" style="rounded=0;whiteSpace=wrap;html=1;fillStyle=dots;strokeColor=default;fontSize=20;fillColor=none;gradientColor=none;opacity=90;" parent="75" vertex="1">
                    <mxGeometry y="360" width="310" height="120" as="geometry"/>
                </mxCell>
                <mxCell id="130" value="UART Receiver" style="rounded=0;whiteSpace=wrap;html=1;fillStyle=dots;strokeColor=default;fontSize=20;fillColor=none;gradientColor=none;opacity=90;" parent="75" vertex="1">
                    <mxGeometry x="310" y="360" width="300" height="120" as="geometry"/>
                </mxCell>
                <mxCell id="131" style="edgeStyle=none;html=1;exitX=0;exitY=0.5;exitDx=0;exitDy=0;entryX=1;entryY=0.5;entryDx=0;entryDy=0;dashed=1;dashPattern=12 12;" parent="75" source="76" target="76" edge="1">
                    <mxGeometry relative="1" as="geometry"/>
                </mxCell>
                <mxCell id="133" value="RX Ring&amp;nbsp; Buffer" style="text;html=1;align=center;verticalAlign=middle;resizable=0;points=[];autosize=1;strokeColor=none;fillColor=none;" parent="75" vertex="1">
                    <mxGeometry x="660" y="350" width="110" height="30" as="geometry"/>
                </mxCell>
                <mxCell id="132" value="TX Ring&amp;nbsp; Buffer&lt;br&gt;" style="text;html=1;align=center;verticalAlign=middle;resizable=0;points=[];autosize=1;strokeColor=none;fillColor=none;" parent="75" vertex="1">
                    <mxGeometry x="660" y="105" width="110" height="30" as="geometry"/>
                </mxCell>
                <mxCell id="134" value="DATA_SEND" style="rounded=0;whiteSpace=wrap;html=1;" parent="75" vertex="1">
                    <mxGeometry x="45" y="360" width="110" height="30" as="geometry"/>
                </mxCell>
                <mxCell id="135" value="DATA_READ" style="rounded=0;whiteSpace=wrap;html=1;" parent="75" vertex="1">
                    <mxGeometry x="400" y="360" width="110" height="30" as="geometry"/>
                </mxCell>
                <mxCell id="184" value="TX_DATA" style="rounded=0;whiteSpace=wrap;html=1;" parent="75" vertex="1">
                    <mxGeometry x="45" y="210" width="110" height="30" as="geometry"/>
                </mxCell>
                <mxCell id="185" value="RX_DATA" style="rounded=0;whiteSpace=wrap;html=1;rotation=-90;" parent="75" vertex="1">
                    <mxGeometry x="300" y="150" width="110" height="30" as="geometry"/>
                </mxCell>
                <mxCell id="187" value="TX_DATA_I" style="rounded=0;whiteSpace=wrap;html=1;fontSize=11;" parent="75" vertex="1">
                    <mxGeometry x="165" y="210" width="60" height="30" as="geometry"/>
                </mxCell>
                <mxCell id="186" style="edgeStyle=orthogonalEdgeStyle;rounded=0;html=1;endArrow=classic;endFill=1;startArrow=none;startFill=0;" parent="75" edge="1">
                    <mxGeometry relative="1" as="geometry">
                        <mxPoint x="195" y="360" as="targetPoint"/>
                        <mxPoint x="195" y="241" as="sourcePoint"/>
                        <Array as="points"/>
                    </mxGeometry>
                </mxCell>
                <mxCell id="190" value="RX_DATA_I" style="rounded=0;whiteSpace=wrap;html=1;fontSize=11;rotation=-90;" parent="75" vertex="1">
                    <mxGeometry x="325" y="50" width="60" height="30" as="geometry"/>
                </mxCell>
                <mxCell id="191" style="edgeStyle=orthogonalEdgeStyle;rounded=0;html=1;endArrow=none;endFill=0;startArrow=classic;startFill=1;entryX=0.803;entryY=-0.015;entryDx=0;entryDy=0;entryPerimeter=0;" parent="75" target="130" edge="1">
                    <mxGeometry relative="1" as="geometry">
                        <mxPoint x="489.63" y="297.68000000000006" as="targetPoint"/>
                        <mxPoint x="370" y="64" as="sourcePoint"/>
                        <Array as="points">
                            <mxPoint x="550" y="64"/>
                            <mxPoint x="550" y="298"/>
                            <mxPoint x="551" y="298"/>
                        </Array>
                    </mxGeometry>
                </mxCell>
                <mxCell id="192" value="TX_SEND_I" style="rounded=0;whiteSpace=wrap;html=1;fontSize=11;" parent="75" vertex="1">
                    <mxGeometry x="165" y="360" width="60" height="30" as="geometry"/>
                </mxCell>
                <mxCell id="194" value="RX_AVBL_I" style="rounded=0;whiteSpace=wrap;html=1;fontSize=11;rotation=0;" parent="75" vertex="1">
                    <mxGeometry x="520" y="360" width="60" height="30" as="geometry"/>
                </mxCell>
                <mxCell id="218" value="TX_AVBL_I" style="rounded=0;whiteSpace=wrap;html=1;fontSize=11;" vertex="1" parent="75">
                    <mxGeometry x="240" y="210" width="60" height="30" as="geometry"/>
                </mxCell>
                <mxCell id="195" value="TX_AVBL_I" style="rounded=0;whiteSpace=wrap;html=1;fontSize=11;" vertex="1" parent="75">
                    <mxGeometry x="240" y="360" width="60" height="30" as="geometry"/>
                </mxCell>
                <mxCell id="219" style="edgeStyle=orthogonalEdgeStyle;rounded=0;html=1;endArrow=none;endFill=0;startArrow=classic;startFill=1;" edge="1" parent="75">
                    <mxGeometry relative="1" as="geometry">
                        <mxPoint x="269.5" y="359" as="targetPoint"/>
                        <mxPoint x="269.5" y="240" as="sourcePoint"/>
                        <Array as="points"/>
                    </mxGeometry>
                </mxCell>
                <mxCell id="87" style="edgeStyle=orthogonalEdgeStyle;rounded=0;html=1;endArrow=none;endFill=0;startArrow=classic;startFill=1;exitX=0.29;exitY=1.005;exitDx=0;exitDy=0;exitPerimeter=0;" parent="1" edge="1">
                    <mxGeometry relative="1" as="geometry">
                        <mxPoint x="233" y="540" as="targetPoint"/>
                        <mxPoint x="232.70000000000005" y="230.89999999999998" as="sourcePoint"/>
                        <Array as="points">
                            <mxPoint x="233" y="310"/>
                            <mxPoint x="233" y="310"/>
                        </Array>
                    </mxGeometry>
                </mxCell>
                <mxCell id="77" value="TestBench Processor Emulator (calls transmit and receives)" style="rounded=0;whiteSpace=wrap;html=1;" parent="1" vertex="1">
                    <mxGeometry x="-50" y="50" width="930" height="180" as="geometry"/>
                </mxCell>
                <mxCell id="86" value="Data Bus (Processor &amp;lt;--&amp;gt; NIC)" style="text;html=1;align=center;verticalAlign=middle;resizable=0;points=[];autosize=1;strokeColor=none;fillColor=none;rotation=-90;" parent="1" vertex="1">
                    <mxGeometry x="34" y="380" width="190" height="30" as="geometry"/>
                </mxCell>
                <mxCell id="91" style="edgeStyle=orthogonalEdgeStyle;rounded=0;html=1;endArrow=classic;endFill=1;startArrow=none;startFill=0;" parent="1" edge="1">
                    <mxGeometry relative="1" as="geometry">
                        <mxPoint x="278" y="540" as="targetPoint"/>
                        <mxPoint x="278" y="230" as="sourcePoint"/>
                        <Array as="points">
                            <mxPoint x="278" y="500"/>
                            <mxPoint x="278" y="500"/>
                        </Array>
                    </mxGeometry>
                </mxCell>
                <mxCell id="92" value="WRITE_NIC" style="text;html=1;align=center;verticalAlign=middle;resizable=0;points=[];autosize=1;strokeColor=none;fillColor=none;rotation=-90;" parent="1" vertex="1">
                    <mxGeometry x="241" y="360" width="90" height="30" as="geometry"/>
                </mxCell>
                <mxCell id="96" style="edgeStyle=orthogonalEdgeStyle;rounded=0;html=1;endArrow=classic;endFill=1;startArrow=none;startFill=0;" parent="1" edge="1">
                    <mxGeometry relative="1" as="geometry">
                        <mxPoint x="50" y="540" as="targetPoint"/>
                        <mxPoint x="50" y="230" as="sourcePoint"/>
                        <Array as="points">
                            <mxPoint x="50" y="500"/>
                            <mxPoint x="50" y="500"/>
                        </Array>
                    </mxGeometry>
                </mxCell>
                <mxCell id="97" style="edgeStyle=orthogonalEdgeStyle;rounded=0;html=1;endArrow=classic;endFill=1;startArrow=none;startFill=0;" parent="1" edge="1">
                    <mxGeometry relative="1" as="geometry">
                        <mxPoint x="60" y="540" as="targetPoint"/>
                        <mxPoint x="60" y="230" as="sourcePoint"/>
                        <Array as="points">
                            <mxPoint x="60" y="500"/>
                            <mxPoint x="60" y="500"/>
                        </Array>
                    </mxGeometry>
                </mxCell>
                <mxCell id="98" style="edgeStyle=orthogonalEdgeStyle;rounded=0;html=1;endArrow=classic;endFill=1;startArrow=none;startFill=0;" parent="1" edge="1">
                    <mxGeometry relative="1" as="geometry">
                        <mxPoint x="70" y="540" as="targetPoint"/>
                        <mxPoint x="70" y="230" as="sourcePoint"/>
                        <Array as="points">
                            <mxPoint x="70" y="500"/>
                            <mxPoint x="70" y="500"/>
                        </Array>
                    </mxGeometry>
                </mxCell>
                <mxCell id="99" style="edgeStyle=orthogonalEdgeStyle;rounded=0;html=1;endArrow=classic;endFill=1;startArrow=none;startFill=0;" parent="1" edge="1">
                    <mxGeometry relative="1" as="geometry">
                        <mxPoint x="80" y="540" as="targetPoint"/>
                        <mxPoint x="80" y="230" as="sourcePoint"/>
                        <Array as="points">
                            <mxPoint x="80" y="500"/>
                            <mxPoint x="80" y="500"/>
                        </Array>
                    </mxGeometry>
                </mxCell>
                <mxCell id="100" style="edgeStyle=orthogonalEdgeStyle;rounded=0;html=1;endArrow=classic;endFill=1;startArrow=none;startFill=0;" parent="1" edge="1">
                    <mxGeometry relative="1" as="geometry">
                        <mxPoint x="90" y="540" as="targetPoint"/>
                        <mxPoint x="90" y="230" as="sourcePoint"/>
                        <Array as="points">
                            <mxPoint x="90" y="540"/>
                            <mxPoint x="90" y="540"/>
                        </Array>
                    </mxGeometry>
                </mxCell>
                <mxCell id="101" style="edgeStyle=orthogonalEdgeStyle;rounded=0;html=1;endArrow=classic;endFill=1;startArrow=none;startFill=0;" parent="1" edge="1">
                    <mxGeometry relative="1" as="geometry">
                        <mxPoint x="100" y="540" as="targetPoint"/>
                        <mxPoint x="100" y="230" as="sourcePoint"/>
                        <Array as="points">
                            <mxPoint x="100" y="500"/>
                            <mxPoint x="100" y="500"/>
                        </Array>
                    </mxGeometry>
                </mxCell>
                <mxCell id="102" style="edgeStyle=orthogonalEdgeStyle;rounded=0;html=1;endArrow=classic;endFill=1;startArrow=none;startFill=0;" parent="1" edge="1">
                    <mxGeometry relative="1" as="geometry">
                        <mxPoint x="110" y="540" as="targetPoint"/>
                        <mxPoint x="110" y="230" as="sourcePoint"/>
                        <Array as="points">
                            <mxPoint x="110" y="520"/>
                        </Array>
                    </mxGeometry>
                </mxCell>
                <mxCell id="103" style="edgeStyle=orthogonalEdgeStyle;rounded=0;html=1;endArrow=classic;endFill=1;startArrow=none;startFill=0;" parent="1" edge="1">
                    <mxGeometry relative="1" as="geometry">
                        <mxPoint x="120" y="540" as="targetPoint"/>
                        <mxPoint x="120" y="230" as="sourcePoint"/>
                        <Array as="points">
                            <mxPoint x="120" y="500"/>
                            <mxPoint x="120" y="500"/>
                        </Array>
                    </mxGeometry>
                </mxCell>
                <mxCell id="106" value="READ_NIC_I" style="text;html=1;align=center;verticalAlign=middle;resizable=0;points=[];autosize=1;strokeColor=none;fillColor=none;rotation=-90;" parent="1" vertex="1">
                    <mxGeometry x="178" y="360" width="90" height="30" as="geometry"/>
                </mxCell>
                <mxCell id="108" style="edgeStyle=orthogonalEdgeStyle;rounded=0;html=1;endArrow=none;endFill=0;startArrow=classic;startFill=1;" parent="1" edge="1">
                    <mxGeometry relative="1" as="geometry">
                        <mxPoint x="140" y="539" as="targetPoint"/>
                        <mxPoint x="140" y="229" as="sourcePoint"/>
                        <Array as="points">
                            <mxPoint x="140" y="499"/>
                            <mxPoint x="140" y="499"/>
                        </Array>
                    </mxGeometry>
                </mxCell>
                <mxCell id="109" style="edgeStyle=orthogonalEdgeStyle;rounded=0;html=1;endArrow=none;endFill=0;startArrow=classic;startFill=1;" parent="1" edge="1">
                    <mxGeometry relative="1" as="geometry">
                        <mxPoint x="150" y="539" as="targetPoint"/>
                        <mxPoint x="150" y="229" as="sourcePoint"/>
                        <Array as="points">
                            <mxPoint x="150" y="499"/>
                            <mxPoint x="150" y="499"/>
                        </Array>
                    </mxGeometry>
                </mxCell>
                <mxCell id="110" style="edgeStyle=orthogonalEdgeStyle;rounded=0;html=1;endArrow=none;endFill=0;startArrow=classic;startFill=1;" parent="1" edge="1">
                    <mxGeometry relative="1" as="geometry">
                        <mxPoint x="160" y="539" as="targetPoint"/>
                        <mxPoint x="160" y="229" as="sourcePoint"/>
                        <Array as="points">
                            <mxPoint x="160" y="499"/>
                            <mxPoint x="160" y="499"/>
                        </Array>
                    </mxGeometry>
                </mxCell>
                <mxCell id="111" style="edgeStyle=orthogonalEdgeStyle;rounded=0;html=1;endArrow=none;endFill=0;startArrow=classic;startFill=1;" parent="1" edge="1">
                    <mxGeometry relative="1" as="geometry">
                        <mxPoint x="170" y="539" as="targetPoint"/>
                        <mxPoint x="170" y="229" as="sourcePoint"/>
                        <Array as="points">
                            <mxPoint x="170" y="499"/>
                            <mxPoint x="170" y="499"/>
                        </Array>
                    </mxGeometry>
                </mxCell>
                <mxCell id="112" style="edgeStyle=orthogonalEdgeStyle;rounded=0;html=1;endArrow=none;endFill=0;startArrow=classic;startFill=1;" parent="1" edge="1">
                    <mxGeometry relative="1" as="geometry">
                        <mxPoint x="180" y="539" as="targetPoint"/>
                        <mxPoint x="180" y="229" as="sourcePoint"/>
                        <Array as="points">
                            <mxPoint x="180" y="539"/>
                            <mxPoint x="180" y="539"/>
                        </Array>
                    </mxGeometry>
                </mxCell>
                <mxCell id="113" style="edgeStyle=orthogonalEdgeStyle;rounded=0;html=1;endArrow=none;endFill=0;startArrow=classic;startFill=1;" parent="1" edge="1">
                    <mxGeometry relative="1" as="geometry">
                        <mxPoint x="190" y="539" as="targetPoint"/>
                        <mxPoint x="190" y="229" as="sourcePoint"/>
                        <Array as="points">
                            <mxPoint x="190" y="499"/>
                            <mxPoint x="190" y="499"/>
                        </Array>
                    </mxGeometry>
                </mxCell>
                <mxCell id="114" style="edgeStyle=orthogonalEdgeStyle;rounded=0;html=1;endArrow=none;endFill=0;startArrow=classic;startFill=1;" parent="1" edge="1">
                    <mxGeometry relative="1" as="geometry">
                        <mxPoint x="200" y="539" as="targetPoint"/>
                        <mxPoint x="200" y="229" as="sourcePoint"/>
                        <Array as="points">
                            <mxPoint x="200" y="519"/>
                        </Array>
                    </mxGeometry>
                </mxCell>
                <mxCell id="115" style="edgeStyle=orthogonalEdgeStyle;rounded=0;html=1;endArrow=none;endFill=0;startArrow=classic;startFill=1;" parent="1" edge="1">
                    <mxGeometry relative="1" as="geometry">
                        <mxPoint x="210" y="539" as="targetPoint"/>
                        <mxPoint x="210" y="229" as="sourcePoint"/>
                        <Array as="points">
                            <mxPoint x="210" y="499"/>
                            <mxPoint x="210" y="499"/>
                        </Array>
                    </mxGeometry>
                </mxCell>
                <mxCell id="118" style="edgeStyle=orthogonalEdgeStyle;rounded=0;html=1;endArrow=classic;endFill=1;startArrow=none;startFill=0;" parent="1" edge="1">
                    <mxGeometry relative="1" as="geometry">
                        <mxPoint x="297" y="540" as="targetPoint"/>
                        <mxPoint x="297" y="230" as="sourcePoint"/>
                        <Array as="points">
                            <mxPoint x="297" y="500"/>
                            <mxPoint x="297" y="500"/>
                        </Array>
                    </mxGeometry>
                </mxCell>
                <mxCell id="119" value="READ_NIC" style="text;html=1;align=center;verticalAlign=middle;resizable=0;points=[];autosize=1;strokeColor=none;fillColor=none;rotation=-90;" parent="1" vertex="1">
                    <mxGeometry x="267" y="359" width="80" height="30" as="geometry"/>
                </mxCell>
                <mxCell id="122" style="edgeStyle=orthogonalEdgeStyle;rounded=0;html=1;startArrow=classic;startFill=1;endArrow=none;endFill=0;" parent="1" edge="1">
                    <mxGeometry relative="1" as="geometry">
                        <mxPoint x="506" y="1340" as="targetPoint"/>
                        <mxPoint x="506.04347826086973" y="1020" as="sourcePoint"/>
                        <Array as="points">
                            <mxPoint x="506" y="1060"/>
                            <mxPoint x="506" y="1060"/>
                        </Array>
                    </mxGeometry>
                </mxCell>
                <mxCell id="124" value="RX" style="text;html=1;align=center;verticalAlign=middle;resizable=0;points=[];autosize=1;strokeColor=default;fillColor=none;" parent="1" vertex="1">
                    <mxGeometry x="485" y="990" width="40" height="30" as="geometry"/>
                </mxCell>
                <mxCell id="74" value="&lt;span style=&quot;font-size: 20px;&quot;&gt;UART&lt;/span&gt;" style="text;html=1;align=center;verticalAlign=middle;resizable=1;points=[];autosize=1;strokeColor=default;fillColor=none;fontSize=20;movable=1;rotatable=1;deletable=1;editable=1;connectable=1;opacity=90;rounded=1;rotation=-90;" parent="1" vertex="1">
                    <mxGeometry x="-70" y="750" width="80" height="40" as="geometry"/>
                </mxCell>
                <mxCell id="146" style="edgeStyle=orthogonalEdgeStyle;rounded=0;html=1;endArrow=classic;endFill=1;startArrow=none;startFill=0;" parent="1" edge="1">
                    <mxGeometry relative="1" as="geometry">
                        <mxPoint x="65" y="899" as="targetPoint"/>
                        <mxPoint x="65" y="780" as="sourcePoint"/>
                        <Array as="points">
                            <mxPoint x="65" y="859"/>
                            <mxPoint x="65" y="859"/>
                        </Array>
                    </mxGeometry>
                </mxCell>
                <mxCell id="147" style="edgeStyle=orthogonalEdgeStyle;rounded=0;html=1;endArrow=classic;endFill=1;startArrow=none;startFill=0;" parent="1" edge="1">
                    <mxGeometry relative="1" as="geometry">
                        <mxPoint x="75" y="899" as="targetPoint"/>
                        <mxPoint x="75" y="780" as="sourcePoint"/>
                        <Array as="points">
                            <mxPoint x="75" y="859"/>
                            <mxPoint x="75" y="859"/>
                        </Array>
                    </mxGeometry>
                </mxCell>
                <mxCell id="148" style="edgeStyle=orthogonalEdgeStyle;rounded=0;html=1;endArrow=classic;endFill=1;startArrow=none;startFill=0;" parent="1" edge="1">
                    <mxGeometry relative="1" as="geometry">
                        <mxPoint x="85" y="899" as="targetPoint"/>
                        <mxPoint x="85" y="780" as="sourcePoint"/>
                        <Array as="points">
                            <mxPoint x="85" y="859"/>
                            <mxPoint x="85" y="859"/>
                        </Array>
                    </mxGeometry>
                </mxCell>
                <mxCell id="149" style="edgeStyle=orthogonalEdgeStyle;rounded=0;html=1;endArrow=classic;endFill=1;startArrow=none;startFill=0;" parent="1" edge="1">
                    <mxGeometry relative="1" as="geometry">
                        <mxPoint x="95" y="899" as="targetPoint"/>
                        <mxPoint x="95" y="780" as="sourcePoint"/>
                        <Array as="points">
                            <mxPoint x="95" y="859"/>
                            <mxPoint x="95" y="859"/>
                        </Array>
                    </mxGeometry>
                </mxCell>
                <mxCell id="150" style="edgeStyle=orthogonalEdgeStyle;rounded=0;html=1;endArrow=classic;endFill=1;startArrow=none;startFill=0;" parent="1" edge="1">
                    <mxGeometry relative="1" as="geometry">
                        <mxPoint x="105" y="899" as="targetPoint"/>
                        <mxPoint x="105" y="780" as="sourcePoint"/>
                        <Array as="points">
                            <mxPoint x="105" y="899"/>
                            <mxPoint x="105" y="899"/>
                        </Array>
                    </mxGeometry>
                </mxCell>
                <mxCell id="151" style="edgeStyle=orthogonalEdgeStyle;rounded=0;html=1;endArrow=classic;endFill=1;startArrow=none;startFill=0;" parent="1" edge="1">
                    <mxGeometry relative="1" as="geometry">
                        <mxPoint x="115" y="899" as="targetPoint"/>
                        <mxPoint x="115" y="780" as="sourcePoint"/>
                        <Array as="points">
                            <mxPoint x="115" y="859"/>
                            <mxPoint x="115" y="859"/>
                        </Array>
                    </mxGeometry>
                </mxCell>
                <mxCell id="152" style="edgeStyle=orthogonalEdgeStyle;rounded=0;html=1;endArrow=classic;endFill=1;startArrow=none;startFill=0;" parent="1" edge="1">
                    <mxGeometry relative="1" as="geometry">
                        <mxPoint x="125" y="899" as="targetPoint"/>
                        <mxPoint x="125" y="780" as="sourcePoint"/>
                        <Array as="points">
                            <mxPoint x="125" y="879"/>
                        </Array>
                    </mxGeometry>
                </mxCell>
                <mxCell id="153" style="edgeStyle=orthogonalEdgeStyle;rounded=0;html=1;endArrow=classic;endFill=1;startArrow=none;startFill=0;" parent="1" edge="1">
                    <mxGeometry relative="1" as="geometry">
                        <mxPoint x="135" y="899" as="targetPoint"/>
                        <mxPoint x="135" y="780" as="sourcePoint"/>
                        <Array as="points"/>
                    </mxGeometry>
                </mxCell>
                <mxCell id="176" style="edgeStyle=orthogonalEdgeStyle;rounded=0;html=1;endArrow=none;endFill=0;startArrow=classic;startFill=1;exitX=1.001;exitY=0.833;exitDx=0;exitDy=0;exitPerimeter=0;" parent="1" source="127" edge="1">
                    <mxGeometry relative="1" as="geometry">
                        <mxPoint x="420" y="900" as="targetPoint"/>
                        <mxPoint x="420" y="781" as="sourcePoint"/>
                        <Array as="points">
                            <mxPoint x="420" y="740"/>
                        </Array>
                    </mxGeometry>
                </mxCell>
                <mxCell id="177" style="edgeStyle=orthogonalEdgeStyle;rounded=0;html=1;endArrow=none;endFill=0;startArrow=classic;startFill=1;" parent="1" edge="1">
                    <mxGeometry relative="1" as="geometry">
                        <mxPoint x="430" y="900" as="targetPoint"/>
                        <mxPoint x="370" y="731" as="sourcePoint"/>
                        <Array as="points">
                            <mxPoint x="430" y="731"/>
                        </Array>
                    </mxGeometry>
                </mxCell>
                <mxCell id="178" style="edgeStyle=orthogonalEdgeStyle;rounded=0;html=1;endArrow=none;endFill=0;startArrow=classic;startFill=1;exitX=1;exitY=0.758;exitDx=0;exitDy=0;exitPerimeter=0;" parent="1" source="127" edge="1">
                    <mxGeometry relative="1" as="geometry">
                        <mxPoint x="440" y="900" as="targetPoint"/>
                        <mxPoint x="370" y="720" as="sourcePoint"/>
                        <Array as="points">
                            <mxPoint x="440" y="722"/>
                        </Array>
                    </mxGeometry>
                </mxCell>
                <mxCell id="179" style="edgeStyle=orthogonalEdgeStyle;rounded=0;html=1;endArrow=none;endFill=0;startArrow=classic;startFill=1;exitX=1;exitY=0.719;exitDx=0;exitDy=0;exitPerimeter=0;" parent="1" source="127" edge="1">
                    <mxGeometry relative="1" as="geometry">
                        <mxPoint x="450" y="900" as="targetPoint"/>
                        <mxPoint x="450" y="730" as="sourcePoint"/>
                        <Array as="points">
                            <mxPoint x="450" y="713"/>
                        </Array>
                    </mxGeometry>
                </mxCell>
                <mxCell id="180" style="edgeStyle=orthogonalEdgeStyle;rounded=0;html=1;endArrow=none;endFill=0;startArrow=classic;startFill=1;" parent="1" edge="1">
                    <mxGeometry relative="1" as="geometry">
                        <mxPoint x="460" y="900" as="targetPoint"/>
                        <mxPoint x="370" y="703" as="sourcePoint"/>
                        <Array as="points">
                            <mxPoint x="460" y="703"/>
                        </Array>
                    </mxGeometry>
                </mxCell>
                <mxCell id="181" style="edgeStyle=orthogonalEdgeStyle;rounded=0;html=1;endArrow=none;endFill=0;startArrow=classic;startFill=1;" parent="1" edge="1">
                    <mxGeometry relative="1" as="geometry">
                        <mxPoint x="470" y="900" as="targetPoint"/>
                        <mxPoint x="370" y="694" as="sourcePoint"/>
                        <Array as="points">
                            <mxPoint x="470" y="694"/>
                        </Array>
                    </mxGeometry>
                </mxCell>
                <mxCell id="182" style="edgeStyle=orthogonalEdgeStyle;rounded=0;html=1;endArrow=none;endFill=0;startArrow=classic;startFill=1;exitX=1.003;exitY=0.607;exitDx=0;exitDy=0;exitPerimeter=0;" parent="1" source="127" edge="1">
                    <mxGeometry relative="1" as="geometry">
                        <mxPoint x="480" y="900" as="targetPoint"/>
                        <mxPoint x="480" y="781" as="sourcePoint"/>
                        <Array as="points">
                            <mxPoint x="480" y="686"/>
                        </Array>
                    </mxGeometry>
                </mxCell>
                <mxCell id="183" style="edgeStyle=orthogonalEdgeStyle;rounded=0;html=1;endArrow=none;endFill=0;startArrow=classic;startFill=1;exitX=1.001;exitY=0.568;exitDx=0;exitDy=0;exitPerimeter=0;" parent="1" source="127" edge="1">
                    <mxGeometry relative="1" as="geometry">
                        <mxPoint x="490" y="900" as="targetPoint"/>
                        <mxPoint x="490" y="781" as="sourcePoint"/>
                        <Array as="points"/>
                    </mxGeometry>
                </mxCell>
            </root>
        </mxGraphModel>
    </diagram>
</mxfile>